<svg width="400" height="400" viewBox="0 0 400 400" fill="none" xmlns="http://www.w3.org/2000/svg">
  <path d="M0 200C0 89.5431 89.5431 0 200 0C310.457 0 400 89.5431 400 200C400 310.457 310.457 400 200 400C89.5431 400 0 310.457 0 200Z" fill="url(#paint0_radial)"/>
  <path d="M100 200C100 144.772 144.772 100 200 100C255.228 100 300 144.772 300 200C300 255.228 255.228 300 200 300C144.772 300 100 255.228 100 200Z" fill="url(#paint1_radial)"/>
  <defs>
    <radialGradient id="paint0_radial" cx="0" cy="0" r="1" gradientUnits="userSpaceOnUse" gradientTransform="translate(200 200) rotate(90) scale(200)">
      <stop stop-color="#7C3AED" stop-opacity="0.2"/>
      <stop offset="1" stop-color="#7C3AED" stop-opacity="0"/>
    </radialGradient>
    <radialGradient id="paint1_radial" cx="0" cy="0" r="1" gradientUnits="userSpaceOnUse" gradientTransform="translate(200 200) rotate(90) scale(100)">
      <stop stop-color="#7C3AED" stop-opacity="0.3"/>
      <stop offset="1" stop-color="#7C3AED" stop-opacity="0"/>
    </radialGradient>
  </defs>
</svg>
