<svg width="400" height="400" viewBox="0 0 400 400" fill="none" xmlns="http://www.w3.org/2000/svg">
  <path d="M200 0C310.457 0 400 89.5431 400 200C400 310.457 310.457 400 200 400C89.5431 400 0 310.457 0 200C0 89.5431 89.5431 0 200 0Z" fill="url(#paint0_linear)"/>
  <path d="M200 50C282.843 50 350 117.157 350 200C350 282.843 282.843 350 200 350C117.157 350 50 282.843 50 200C50 117.157 117.157 50 200 50Z" fill="url(#paint1_linear)"/>
  <path d="M200 100C255.228 100 300 144.772 300 200C300 255.228 255.228 300 200 300C144.772 300 100 255.228 100 200C100 144.772 144.772 100 200 100Z" fill="url(#paint2_linear)"/>
  <defs>
    <linearGradient id="paint0_linear" x1="0" y1="0" x2="400" y2="400" gradientUnits="userSpaceOnUse">
      <stop stop-color="#0EA5E9" stop-opacity="0.1"/>
      <stop offset="1" stop-color="#0EA5E9" stop-opacity="0"/>
    </linearGradient>
    <linearGradient id="paint1_linear" x1="50" y1="50" x2="350" y2="350" gradientUnits="userSpaceOnUse">
      <stop stop-color="#0EA5E9" stop-opacity="0.2"/>
      <stop offset="1" stop-color="#0EA5E9" stop-opacity="0"/>
    </linearGradient>
    <linearGradient id="paint2_linear" x1="100" y1="100" x2="300" y2="300" gradientUnits="userSpaceOnUse">
      <stop stop-color="#0EA5E9" stop-opacity="0.3"/>
      <stop offset="1" stop-color="#0EA5E9" stop-opacity="0"/>
    </linearGradient>
  </defs>
</svg>
